<svg width="26" height="34" viewBox="0 0 26 34" fill="none" xmlns="http://www.w3.org/2000/svg">
<g clip-path="url(#clip0_134_41)">
<path d="M24.0137 11.4793H22.7464C22.7464 6.64332 18.7104 1.23367 13.3089 1.23367C7.9074 1.23367 3.87134 6.64332 3.87134 11.4793H2.60413C2.60413 6.06041 7.18192 0 13.3089 0C19.4359 0 24.0137 6.06041 24.0137 11.4793Z" fill="white"/>
<path d="M23.3515 34H2.64847C1.18801 34 0 32.8434 0 31.4216V16.2752C0 14.8534 1.18801 13.6968 2.64847 13.6968H23.3515C24.812 13.6968 26 14.8534 26 16.2752V31.4216C26 32.8434 24.812 34 23.3515 34ZM2.64847 14.9305C1.88814 14.9305 1.26721 15.535 1.26721 16.2752V31.4216C1.26721 32.1618 1.88814 32.7663 2.64847 32.7663H23.3515C24.1119 32.7663 24.7328 32.1618 24.7328 31.4216V16.2752C24.7328 15.535 24.1119 14.9305 23.3515 14.9305H2.64847Z" fill="white"/>
</g>
<defs>
<clipPath id="clip0_134_41">
<rect width="26" height="34" fill="white"/>
</clipPath>
</defs>
</svg>
