<svg width="36" height="28" viewBox="0 0 36 28" fill="none" xmlns="http://www.w3.org/2000/svg">
<path d="M35.9507 27.7005C35.9593 27.6845 35.9651 27.6686 35.9708 27.6495C35.9766 27.6335 35.9794 27.6176 35.9852 27.6017C35.9881 27.5857 35.9938 27.5698 35.9938 27.5507C35.9938 27.5316 35.9967 27.5125 35.9996 27.4965C35.9996 27.487 35.9996 27.4774 35.9996 27.4678V0.525777C35.9996 0.525777 35.9996 0.506658 35.9996 0.497098C35.9996 0.477979 35.9996 0.45886 35.9938 0.442927C35.9938 0.426994 35.9881 0.411062 35.9852 0.391943C35.9823 0.37601 35.9766 0.360077 35.9708 0.344145C35.9651 0.328212 35.9593 0.309093 35.9507 0.29316C35.9449 0.280414 35.9392 0.264482 35.9305 0.251736C35.9219 0.235803 35.9104 0.21987 35.8989 0.203938C35.8932 0.197565 35.8903 0.188005 35.8845 0.181632C35.8817 0.178445 35.8759 0.175259 35.873 0.168886C35.8615 0.152953 35.8472 0.140207 35.8357 0.127461C35.8242 0.117901 35.8155 0.105155 35.804 0.0987823C35.7925 0.0892227 35.7782 0.0796631 35.7638 0.0701036C35.7494 0.060544 35.7379 0.0541709 35.7235 0.0446114C35.7092 0.0382383 35.6948 0.0318653 35.6833 0.0286787C35.6689 0.0223057 35.6517 0.0159326 35.6373 0.0127461C35.6229 0.00955958 35.6114 0.00637305 35.597 0.00637305C35.5798 0.00637305 35.5625 0 35.5453 0C35.5395 0 35.5367 0 35.5309 0H0.476831C0.476831 0 0.465331 0 0.462456 0C0.445205 0 0.427953 0 0.410702 0.00637305C0.396327 0.00637305 0.381951 0.00955958 0.37045 0.0127461C0.353199 0.0159326 0.338823 0.0223057 0.324447 0.0286787C0.310072 0.0350518 0.295696 0.0382383 0.284195 0.0446114C0.269819 0.0509844 0.258319 0.060544 0.243943 0.0701036C0.229567 0.0796631 0.218066 0.0860362 0.20369 0.0987823C0.19219 0.108342 0.180689 0.117901 0.172063 0.127461C0.157688 0.140207 0.146187 0.152953 0.134686 0.168886C0.131811 0.172072 0.126061 0.175259 0.123186 0.181632C0.117435 0.188005 0.11456 0.197565 0.10881 0.203938C0.097309 0.21987 0.0858083 0.235803 0.0771828 0.251736C0.0685573 0.264482 0.0628069 0.280414 0.0570566 0.29316C0.0484311 0.309093 0.0426807 0.325026 0.0369304 0.344145C0.0311801 0.360077 0.0283049 0.37601 0.0225546 0.391943C0.0196794 0.407875 0.0139291 0.423808 0.0139291 0.442927C0.0139291 0.462046 0.0110539 0.481165 0.00817871 0.497098C0.00817871 0.506658 0.00817871 0.516217 0.00817871 0.525777V27.471C0.00817871 27.471 0.00817871 27.4902 0.00817871 27.4997C0.00817871 27.5188 0.00817871 27.538 0.0139291 27.5539C0.0139291 27.5698 0.0196794 27.5857 0.0225546 27.6049C0.0254297 27.6208 0.0311801 27.6367 0.0369304 27.6527C0.0426807 27.6686 0.0484311 27.6877 0.0570566 27.7036C0.0628069 27.7164 0.0685573 27.7323 0.0771828 27.7451C0.0858083 27.761 0.097309 27.7769 0.10881 27.7929C0.11456 27.7992 0.117435 27.8088 0.123186 27.8152C0.126061 27.8184 0.128936 27.8216 0.134686 27.8247C0.149062 27.8439 0.166313 27.8598 0.183564 27.8725C0.19219 27.8821 0.200815 27.8885 0.209441 27.898C0.226692 27.9108 0.246818 27.9235 0.266944 27.9363C0.27557 27.9426 0.284195 27.949 0.295696 27.9522C0.318697 27.9649 0.344574 27.9713 0.373325 27.9809C0.379076 27.9809 0.384826 27.9841 0.387701 27.9873C0.419328 27.9936 0.450955 28 0.485457 28H35.5338C35.5683 28 35.5999 27.9968 35.6315 27.9873C35.6373 27.9873 35.643 27.9841 35.6488 27.9809C35.6747 27.9745 35.7005 27.9649 35.7235 27.9522C35.7322 27.949 35.7408 27.9395 35.7523 27.9363C35.7724 27.9235 35.7925 27.914 35.8098 27.898C35.8184 27.8917 35.827 27.8821 35.8357 27.8725C35.8529 27.8566 35.8673 27.8407 35.8845 27.8247C35.8874 27.8216 35.8932 27.8184 35.896 27.8152C35.9018 27.8088 35.9047 27.7992 35.9104 27.7929C35.9219 27.7769 35.9334 27.761 35.9421 27.7451C35.9507 27.7323 35.9564 27.7164 35.9622 27.7036L35.9507 27.7005ZM0.951234 1.6793L13.7687 13.9952L0.951234 26.3143V1.6793ZM17.9981 16.6655L1.75053 1.05155H34.2486L18.001 16.6655H17.9981ZM14.4933 14.6931L17.6876 17.7617C17.7767 17.8477 17.8889 17.8923 17.9981 17.8923C18.1074 17.8923 18.2195 17.8509 18.3086 17.7617L21.5029 14.6931L34.2457 26.9389H1.75053L14.4933 14.6931ZM22.2304 13.9952L35.0479 1.6793V26.3111L22.2304 13.9952Z" fill="white"/>
</svg>
