<svg width="116" height="111" viewBox="0 0 116 111" fill="none" xmlns="http://www.w3.org/2000/svg">
<path d="M75.0175 20.9359C75.0175 24.3522 72.2952 26.933 68.6835 26.933H50.3418V54.843H46.6155V23.2H68.6835C69.9368 23.2 71.2845 22.4857 71.2845 20.9292C71.2845 20.2756 70.2468 19.2918 68.6835 19.2918H46.6155V15.5655H68.6835C72.1133 15.5655 75.0175 18.0182 75.0175 20.9292V20.9359Z" fill="white"/>
<path d="M91.3309 21.475C91.3309 33.3141 81.7019 42.9364 69.8627 42.9364H62.1743V48.9335H58.448V39.2102H69.8627C79.6467 39.2102 87.6046 31.2522 87.6046 21.475C87.6046 11.6977 79.6467 3.73302 69.8627 3.73302H50.3486V7.6345H69.2495C76.8772 7.6345 83.0832 13.8405 83.0832 21.4682C83.0832 29.096 76.8503 35.302 69.2225 35.302L56.2244 35.1402V63.6298L54.3983 65.3682L52.4981 63.6298V31.3668L69.2764 31.5757C74.849 31.5757 79.3637 27.0408 79.3637 21.4682C79.3637 15.8957 74.8288 11.3608 69.2562 11.3608H46.629V0H69.8694C81.7086 0 91.3376 9.62903 91.3376 21.4682L91.3309 21.475Z" fill="white"/>
<path d="M54.3983 73.9798L46.6223 67.0932V59.0679H50.3486V65.4154L54.3983 69.0002L58.4413 65.4154V53.1584H62.1743V67.0932L54.3983 73.9798Z" fill="white"/>
<path d="M8.47004 88.7164C11.4686 88.7164 13.4968 89.5924 14.5547 91.3377C15.3566 92.3619 15.7609 93.6017 15.7609 95.0639V95.3806C15.7609 98.4331 14.1033 100.461 10.7813 101.465C9.86487 101.674 8.8676 101.782 7.78947 101.782H5.08742V107.078H0V88.7232H8.47004V88.7164ZM5.08742 93.0155V97.4223H7.47277C9.11692 97.4223 10.0603 97.2269 10.3029 96.8428C10.5859 96.4048 10.7206 95.9332 10.7206 95.4278C10.7206 93.8173 9.68967 93.0155 7.62775 93.0155H5.08742Z" fill="white"/>
<path d="M25.929 93.4872L27.4518 93.8039V98.6285H26.6634C24.6352 98.6285 23.3078 99.1878 22.6811 100.306C22.297 100.859 22.1016 101.836 22.1016 103.244V107.072H17.0142V93.7028H21.9938V96.4318L22.7822 95.1178C23.6245 94.033 24.6689 93.4939 25.929 93.4939V93.4872Z" fill="white"/>
<path d="M29.2442 92.3888V88.7164H34.4866V92.3888L31.8654 93.8645L29.2442 92.3888ZM34.4866 93.7028V107.072H29.2442V93.7028L31.8654 95.1785L34.4866 93.7028Z" fill="white"/>
<path d="M94.6259 92.3888V88.7164H99.8683V92.3888L97.2471 93.8645L94.6259 92.3888ZM99.8683 93.7028V107.072H94.6259V93.7028L97.2471 95.1785L99.8683 93.7028Z" fill="white"/>
<path d="M50.1734 107.072H45.2477V100.097C45.2477 98.7969 44.7962 97.9883 43.8865 97.6851C43.6911 97.6514 43.5362 97.6312 43.4149 97.6312H43.0982C42.1683 97.6312 41.5618 98.1703 41.2654 99.2552C41.2317 99.3832 41.2114 99.5449 41.2114 99.7268V107.065H36.2318V93.6961H41.2114V95.3739C42.3974 93.9386 43.745 93.2244 45.2477 93.2244H45.6116C47.7678 93.2244 49.2233 94.3092 49.9645 96.4722C50.106 97.1258 50.1734 97.7255 50.1734 98.2579V107.065V107.072Z" fill="white"/>
<path d="M52.3566 93.6961V88.8445H57.599V93.6961H61.5207V97.3954H57.599V100.987C57.599 101.593 57.7944 102.159 58.1785 102.692C58.475 103.109 59.5868 103.372 61.5207 103.467V107.072H59.3981C58.1717 107.072 56.9521 106.863 55.7257 106.445C53.4819 105.353 52.3566 103.184 52.3566 99.9424V97.4021H51.0359V93.7028H52.3566V93.6961Z" fill="white"/>
<path d="M69.647 92.9885C72.3895 92.9885 74.6132 94.1745 76.3045 96.5531C76.9716 97.7525 77.3018 98.8845 77.3018 99.9627V100.697C77.3018 102.591 76.446 104.322 74.7345 105.886C73.2251 107.112 71.4731 107.718 69.4921 107.718C66.7159 107.718 64.5125 106.566 62.8885 104.255C62.1541 103.096 61.7902 101.836 61.7902 100.482V100.273C61.7902 97.6177 63.0839 95.5019 65.6715 93.9252C66.9046 93.2985 68.232 92.9818 69.6605 92.9818L69.647 92.9885ZM67.3897 100.07V100.751C67.3897 102.348 67.8951 103.258 68.9126 103.48L69.647 103.534C70.5702 103.534 71.1699 103.17 71.4327 102.436C71.6416 101.809 71.7494 101.108 71.7494 100.34C71.7494 98.2444 71.0351 97.1932 69.5999 97.1932H69.4449C68.5959 97.1932 68.0231 97.5773 67.7132 98.3455C67.5043 98.8643 67.3965 99.4371 67.3965 100.077L67.3897 100.07Z" fill="white"/>
<path d="M87.3014 93.3591C88.1437 93.3591 88.9792 93.5141 89.8215 93.8308C92.2675 95.0639 93.4939 97.0719 93.4939 99.8616V100.017C93.4939 101.317 93.1974 102.49 92.6044 103.527C91.3174 105.488 89.6396 106.465 87.5709 106.465H86.8904C85.7785 106.465 84.7206 106.047 83.7166 105.205V111H78.4742V104.787L78.4877 93.6961H83.7436V94.6125H83.7975C84.8015 93.7702 85.974 93.3524 87.3081 93.3524L87.3014 93.3591ZM87.9281 99.491C87.9281 99.1339 87.8405 98.7296 87.6653 98.2848C87.3486 97.5504 86.7219 97.1865 85.7785 97.1865C85.5966 97.2202 85.4214 97.2404 85.253 97.2404C84.1344 97.4493 83.5751 98.2377 83.5751 99.5988C83.6088 100.919 83.7301 101.667 83.939 101.856C83.939 102.301 84.4983 102.584 85.6168 102.698H85.9335C86.1896 102.698 86.4995 102.645 86.8769 102.543C87.5777 102.079 87.9281 101.209 87.9281 99.9222V99.5045V99.491Z" fill="white"/>
<path d="M107.146 107.408C106.303 107.408 105.468 107.254 104.626 106.937C102.18 105.704 100.953 103.473 100.953 100.252V100.097C100.953 98.7969 101.25 97.6245 101.843 96.5868C103.13 94.6259 104.807 93.6489 106.876 93.6489H107.557C108.669 93.6489 109.726 94.0667 110.73 94.9089V93.7028H115.973L115.959 107.072H110.704V106.155H110.65C109.646 106.997 108.473 107.415 107.139 107.415L107.146 107.408ZM106.519 100.616C106.519 101.411 106.607 102.031 106.782 102.476C107.099 103.211 107.725 103.574 108.669 103.574C108.85 103.541 109.026 103.52 109.194 103.52C110.313 103.305 110.872 102.294 110.872 100.508C110.838 99.1878 110.717 98.4398 110.508 98.2511C110.508 97.8064 109.949 97.5234 108.83 97.4088H108.514C108.258 97.4088 107.948 97.4628 107.57 97.5638C106.869 98.0288 106.519 98.898 106.519 100.185V100.603V100.616Z" fill="white"/>
</svg>
