<svg width="34" height="31" viewBox="0 0 34 31" fill="none" xmlns="http://www.w3.org/2000/svg">
<path d="M11.0529 8.60706C11.717 4.72294 14.2567 1.81441 17.2899 1.81441C20.3232 1.81441 22.8629 4.72294 23.527 8.60706H24.8821C24.2001 3.71088 21.0591 0 17.2899 0C13.5208 0 10.3798 3.71088 9.69775 8.60706H11.0529Z" fill="white"/>
<path d="M6.61073 11.8074L0.947998 31H34.0001L27.3861 11.8074H6.61073ZM17.1644 23.715C13.826 23.715 11.035 20.4144 10.4248 16.0744H11.6273C12.2196 19.5209 14.4722 22.1012 17.1644 22.1012C19.8567 22.1012 22.1092 19.5209 22.7015 16.0744H23.9041C23.2938 20.4235 20.5118 23.715 17.1644 23.715Z" fill="white"/>
</svg>
