<svg width="178" height="178" viewBox="0 0 178 178" fill="none" xmlns="http://www.w3.org/2000/svg">
<g clip-path="url(#clip0_86_54)">
<path d="M88.9962 178C39.9279 178 0 138.072 0 88.9962C0 39.9203 39.9279 0 88.9962 0C138.065 0 178 39.9279 178 88.9962C178 138.065 138.072 178 88.9962 178ZM88.9962 2.64413C41.3791 2.64413 2.64413 41.3791 2.64413 88.9962C2.64413 136.613 41.3791 175.356 89.0038 175.356C136.629 175.356 175.363 136.613 175.363 88.9962C175.363 41.3791 136.621 2.64413 88.9962 2.64413Z" fill="#017F8D"/>
<path d="M88.9962 165.516C46.8117 165.516 12.4836 131.188 12.4836 89.0038C12.4836 46.8193 46.8117 12.4836 88.9962 12.4836C131.181 12.4836 165.509 46.8117 165.509 88.9962C165.509 131.181 131.181 165.509 88.9962 165.509V165.516ZM88.9962 15.1278C48.263 15.1278 15.1278 48.263 15.1278 88.9962C15.1278 129.729 48.263 162.872 88.9962 162.872C129.729 162.872 162.872 129.729 162.872 88.9962C162.872 48.263 129.729 15.1278 88.9962 15.1278Z" fill="#017F8D"/>
<path d="M88.9962 146.369C57.3654 146.369 31.6307 120.635 31.6307 89.0038C31.6307 57.373 57.3654 31.6307 88.9962 31.6307C120.627 31.6307 146.362 57.3654 146.362 88.9962C146.362 120.627 120.627 146.362 88.9962 146.362V146.369ZM88.9962 34.2749C58.8242 34.2749 34.2749 58.8242 34.2749 88.9962C34.2749 119.168 58.8242 143.725 88.9962 143.725C119.168 143.725 143.725 119.176 143.725 88.9962C143.725 58.8166 119.176 34.2749 88.9962 34.2749Z" fill="#017F8D"/>
<path d="M88.9962 40.3838C62.1902 40.3838 40.3837 62.1902 40.3837 88.9962C40.3837 115.802 62.1902 137.609 88.9962 137.609C115.802 137.609 137.609 115.802 137.609 88.9962C137.609 62.1902 115.802 40.3838 88.9962 40.3838ZM132.214 73.481L103.227 69.2717L90.3106 43.0963C109.633 43.6434 125.976 56.1574 132.214 73.4886V73.481ZM101.472 71.6878L129.372 75.7452L109.184 95.4242L113.948 123.21L88.9886 110.088L64.0365 123.21L68.8005 95.4242L48.6124 75.7452L76.5126 71.6878L88.9886 46.4091L101.465 71.6878H101.472ZM87.6817 43.0963L74.765 69.2717L45.7784 73.481C52.024 56.1498 68.3598 43.6434 87.6817 43.0887V43.0963ZM43.0203 88.9962C43.0203 84.4298 43.7117 80.0305 44.9578 75.8668L65.9664 96.3436L60.9897 125.368C50.0865 116.957 43.0279 103.797 43.0279 88.9962H43.0203ZM62.8892 126.797L88.9886 113.075L115.088 126.797C107.665 131.941 98.6837 134.965 88.9886 134.965C79.2934 134.965 70.3125 131.933 62.8892 126.797ZM116.995 125.368L112.018 96.3436L133.027 75.8668C134.273 80.0305 134.965 84.4374 134.965 88.9962C134.965 103.797 127.898 116.95 117.003 125.368H116.995Z" fill="#017F8D"/>
</g>
<defs>
<clipPath id="clip0_86_54">
<rect width="178" height="178" fill="white"/>
</clipPath>
</defs>
</svg>
