<svg width="21" height="21" viewBox="0 0 21 21" fill="none" xmlns="http://www.w3.org/2000/svg">
<path d="M20.8098 19.9091L11.3272 10.5834L20.815 1.0865C21.0671 0.834768 21.0632 0.429693 20.8072 0.18307C20.5513 -0.0635528 20.1394 -0.0609971 19.8886 0.190737L10.4099 9.67997L1.11048 0.534476C0.857105 0.285297 0.445213 0.285297 0.191841 0.534476C-0.0615312 0.783654 -0.0615312 1.18873 0.191841 1.43791L9.49904 10.5911L0.186644 19.9129C-0.0654292 20.1646 -0.0615312 20.5697 0.19444 20.8163C0.320476 20.939 0.485493 20.9991 0.64921 20.9991C0.812927 20.9991 0.98574 20.9352 1.11308 20.8074L10.4164 11.4945L19.8912 20.8125C20.0185 20.9377 20.1848 20.9991 20.3512 20.9991C20.5175 20.9991 20.6838 20.9364 20.8111 20.8125C21.0645 20.5633 21.0645 20.1582 20.8111 19.9091H20.8098Z" fill="#FEFEFE"/>
</svg>
