<svg width="19" height="13" viewBox="0 0 19 13" fill="none" xmlns="http://www.w3.org/2000/svg">
<g clip-path="url(#clip0_98_131)">
<path d="M18.9745 12.8626C18.979 12.8552 18.9821 12.8478 18.9851 12.839C18.9881 12.8316 18.9897 12.8242 18.9927 12.8168C18.9942 12.8094 18.9972 12.802 18.9972 12.7931C18.9972 12.7842 18.9988 12.7754 19.0003 12.768C19.0003 12.7635 19.0003 12.7591 19.0003 12.7546V0.24582C19.0003 0.24582 19.0003 0.236943 19.0003 0.232504C19.0003 0.223628 19.0003 0.214751 18.9972 0.207354C18.9972 0.199956 18.9942 0.192559 18.9927 0.183682C18.9912 0.176285 18.9881 0.168888 18.9851 0.16149C18.9821 0.154093 18.979 0.145216 18.9745 0.137819C18.9715 0.131901 18.9684 0.124504 18.9639 0.118586C18.9593 0.111189 18.9532 0.103792 18.9472 0.0963943C18.9441 0.0934354 18.9426 0.088997 18.9396 0.0860381C18.9381 0.0845586 18.935 0.0830792 18.9335 0.0801203C18.9274 0.072723 18.9199 0.0668051 18.9138 0.0608873C18.9077 0.0564489 18.9032 0.0505311 18.8971 0.0475722C18.891 0.0431338 18.8834 0.0386954 18.8759 0.0342571C18.8683 0.0298187 18.8622 0.0268598 18.8546 0.0224214C18.847 0.0194625 18.8394 0.0165036 18.8334 0.0150241C18.8258 0.0120652 18.8167 0.00910628 18.8091 0.00762682C18.8015 0.00614736 18.7954 0.0046679 18.7878 0.0046679C18.7787 0.0046679 18.7696 0.00170898 18.7605 0.00170898C18.7575 0.00170898 18.756 0.00170898 18.7529 0.00170898H0.252182C0.252182 0.00170898 0.246112 0.00170898 0.244594 0.00170898C0.23549 0.00170898 0.226385 0.00170898 0.21728 0.0046679C0.209693 0.0046679 0.202106 0.00614736 0.196036 0.00762682C0.186931 0.00910628 0.179344 0.0120652 0.171757 0.0150241C0.164169 0.017983 0.156582 0.0194625 0.150512 0.0224214C0.142925 0.0253803 0.136855 0.0298187 0.129268 0.0342571C0.121681 0.0386954 0.115611 0.0416544 0.108024 0.0475722C0.101954 0.0520106 0.0958841 0.0564489 0.0913317 0.0608873C0.0837445 0.0668051 0.0776747 0.072723 0.0716049 0.0801203C0.0700874 0.0815997 0.0670525 0.0830792 0.0655351 0.0860381C0.0625002 0.088997 0.0609827 0.0934354 0.0579478 0.0963943C0.051878 0.103792 0.0458082 0.111189 0.0412559 0.118586C0.0367035 0.124504 0.0336686 0.131901 0.0306337 0.137819C0.0260813 0.145216 0.0230464 0.152614 0.0200115 0.16149C0.0169766 0.168888 0.0154592 0.176285 0.0124243 0.183682C0.0109068 0.19108 0.00787194 0.198477 0.00787194 0.207354C0.00787194 0.21623 0.00635449 0.225107 0.00483704 0.232504C0.00483704 0.236943 0.00483704 0.241381 0.00483704 0.24582V12.7561C0.00483704 12.7561 0.00483704 12.765 0.00483704 12.7694C0.00483704 12.7783 0.00483704 12.7872 0.00787194 12.7946C0.00787194 12.802 0.0109068 12.8094 0.0124243 12.8183C0.0139417 12.8257 0.0169766 12.833 0.0200115 12.8404C0.0230464 12.8478 0.0260813 12.8567 0.0306337 12.8641C0.0336686 12.87 0.0367035 12.8774 0.0412559 12.8834C0.0458082 12.8907 0.051878 12.8981 0.0579478 12.9055C0.0609827 12.9085 0.0625002 12.9129 0.0655351 12.9159C0.0670525 12.9174 0.06857 12.9189 0.0716049 12.9203C0.0791921 12.9292 0.0882968 12.9366 0.0974015 12.9425C0.101954 12.947 0.106506 12.9499 0.111059 12.9544C0.120163 12.9603 0.130785 12.9662 0.141408 12.9721C0.14596 12.9751 0.150512 12.978 0.156582 12.9795C0.168722 12.9854 0.182379 12.9884 0.197553 12.9928C0.200588 12.9928 0.203623 12.9943 0.205141 12.9958C0.221832 12.9987 0.238524 13.0017 0.256734 13.0017H18.7545C18.7727 13.0017 18.7894 13.0002 18.8061 12.9958C18.8091 12.9958 18.8121 12.9943 18.8152 12.9928C18.8288 12.9899 18.8425 12.9854 18.8546 12.9795C18.8592 12.978 18.8637 12.9736 18.8698 12.9721C18.8804 12.9662 18.891 12.9618 18.9001 12.9544C18.9047 12.9514 18.9092 12.947 18.9138 12.9425C18.9229 12.9351 18.9305 12.9277 18.9396 12.9203C18.9411 12.9189 18.9441 12.9174 18.9457 12.9159C18.9487 12.9129 18.9502 12.9085 18.9532 12.9055C18.9593 12.8981 18.9654 12.8907 18.9699 12.8834C18.9745 12.8774 18.9775 12.87 18.9806 12.8641L18.9745 12.8626ZM0.502561 0.781383L7.26736 6.49949L0.502561 12.2191V0.781383ZM9.49953 7.73928L0.924412 0.48993H18.0762L9.50104 7.73928H9.49953ZM7.64975 6.82349L9.33564 8.24821C9.38268 8.28815 9.44186 8.30887 9.49953 8.30887C9.55719 8.30887 9.61637 8.28963 9.66341 8.24821L11.3493 6.82349L18.0746 12.509H0.924412L7.64975 6.82349ZM11.7332 6.49949L18.498 0.781383V12.2176L11.7332 6.49949Z" fill="white"/>
</g>
<defs>
<clipPath id="clip0_98_131">
<rect width="19" height="13" fill="white"/>
</clipPath>
</defs>
</svg>
