<svg width="25" height="30" viewBox="0 0 25 30" fill="none" xmlns="http://www.w3.org/2000/svg">
<g clip-path="url(#clip0_274_116)">
<path d="M18.4783 10.0173C18.1968 10.3102 18.2146 10.7688 18.516 11.0424L22.5472 14.684H7.5428C7.13235 14.684 6.79724 15.0077 6.79724 15.4085C6.79724 15.8073 7.13036 16.1329 7.5428 16.1329H22.5511L18.518 19.7765C18.2166 20.0482 18.1987 20.5087 18.4803 20.8015C18.7599 21.0944 19.2318 21.1098 19.5332 20.8381L24.6371 16.2274C25.1249 15.7861 25.1249 15.0366 24.6371 14.5954L19.5332 9.98458C19.2318 9.71291 18.7599 9.72832 18.4803 10.0212L18.4783 10.0173Z" fill="#EEEFEF" fill-opacity="0.8"/>
<path d="M20.8677 30H2.97034C1.33249 30 0 28.7052 0 27.1137V2.88632C0 1.2948 1.33249 0 2.97034 0H20.8677C21.2504 0 21.5617 0.302505 21.5617 0.674374C21.5617 1.04624 21.2504 1.34875 20.8677 1.34875H2.97034C2.09787 1.34875 1.38801 2.03854 1.38801 2.88632V27.1137C1.38801 27.9615 2.09787 28.6513 2.97034 28.6513H20.8677C21.2504 28.6513 21.5617 28.9538 21.5617 29.3256C21.5617 29.6975 21.2504 30 20.8677 30Z" fill="#EEEFEF" fill-opacity="0.8"/>
</g>
<defs>
<clipPath id="clip0_274_116">
<rect width="25" height="30" fill="white"/>
</clipPath>
</defs>
</svg>
