<svg width="141" height="178" viewBox="0 0 141 178" fill="none" xmlns="http://www.w3.org/2000/svg">
<g clip-path="url(#clip0_86_63)">
<path d="M43.4415 113.134C66.8925 68.8685 73.6143 37.1675 63.4957 18.906C56.4716 6.31789 43.9665 5.34713 43.4415 5.32326L41.1744 5.18799L34.898 5.26756H34.2934L26.9113 5.18799L24.6442 5.32326C24.1192 5.34713 11.6141 6.31789 4.58996 18.906C-5.59227 37.1914 1.2171 68.9799 24.8112 113.412C22.2418 115.513 20.6349 118.728 20.6349 122.292V166.335C20.6349 172.756 25.8613 177.984 32.3047 177.984H36.2583C42.7017 177.984 47.9281 172.756 47.9281 166.335V122.292C47.9281 118.584 46.186 115.266 43.4495 113.134H43.4415ZM61.0616 20.2587C67.7277 32.2103 69.6051 57.7764 41.063 111.694C40.5619 111.447 40.013 111.248 39.4561 111.113C42.1131 101.294 57.7682 40.4538 45.5655 8.47426C49.2724 9.3575 56.5193 12.0709 61.0536 20.2587H61.0616ZM35.6696 8.02867L42.4472 8.08437C55.2784 38.7112 39.0186 102.066 36.6958 110.667C36.5606 110.643 36.3935 110.643 36.2503 110.643H35.6696V8.03663V8.02867ZM25.6544 8.02867H32.9013V110.643H32.2888C31.9865 110.643 31.6842 110.643 31.374 110.699C29.1069 102.233 12.7039 38.6873 25.6465 8.02867H25.6544ZM6.96051 20.3144C11.5823 11.9833 18.7973 9.3018 22.5043 8.47426C10.2777 40.5652 26.0999 101.763 28.6455 111.224C28.1205 111.391 27.5954 111.614 27.0943 111.885C-1.50347 57.9116 0.350014 32.2978 6.96051 20.3144ZM45.1598 166.335C45.1598 171.228 41.1744 175.215 36.2503 175.215H32.2968C27.4045 175.215 23.3873 171.228 23.3873 166.335V122.292C23.3873 117.399 27.3966 113.412 32.2968 113.412H36.2503C41.1744 113.412 45.1598 117.399 45.1598 122.292V166.335Z" fill="#017F8D"/>
<path d="M141 87.4245V33.6823L115.131 7.62286C104.766 -2.14048 96.5323 -0.755951 91.4412 2.1086C86.366 4.97315 83.2159 10.559 83.2159 16.678V87.4165H102.88V124.568C99.9927 126.693 98.0994 130.09 98.0994 133.942V166.327C98.0994 172.764 103.334 177.992 109.761 177.992H113.731C120.158 177.992 125.393 172.756 125.393 166.327V133.942C125.393 130.17 123.563 126.844 120.779 124.711V87.4245H140.992H141ZM85.9841 84.6554V16.686C85.9841 11.5616 88.6013 6.89877 92.8094 4.52755C99.0381 1.01052 105.903 2.73721 113.206 9.61213L138.232 34.8281V84.6554H120.787V36.2127H102.88V84.6554H85.9841ZM122.632 133.942V166.327C122.632 171.236 118.639 175.231 113.739 175.231H109.769C104.861 175.231 100.868 171.236 100.868 166.327V133.942C100.868 129.032 104.861 125.038 109.769 125.038H113.739C118.647 125.038 122.632 129.032 122.632 133.942ZM113.739 122.277H109.769C108.313 122.277 106.937 122.579 105.649 123.064V38.9738H118.018V123.112C116.69 122.579 115.25 122.269 113.731 122.269L113.739 122.277Z" fill="#017F8D"/>
</g>
<defs>
<clipPath id="clip0_86_63">
<rect width="141" height="178" fill="white"/>
</clipPath>
</defs>
</svg>
