<svg width="32" height="31" viewBox="0 0 32 31" fill="none" xmlns="http://www.w3.org/2000/svg">
<path d="M15.4626 19.3203C10.4639 19.3203 6.39862 15.19 6.39862 10.1115C6.39862 5.03294 10.4729 0.911766 15.4626 0.911766C20.4523 0.911766 24.5266 5.04206 24.5266 10.1206C24.5266 15.1991 20.4612 19.3294 15.4626 19.3294V19.3203ZM15.4626 2.48912C11.3255 2.48912 7.95116 5.90824 7.95116 10.1206C7.95116 14.3329 11.3165 17.7521 15.4626 17.7521C19.6087 17.7521 22.974 14.3329 22.974 10.1206C22.974 5.90824 19.6087 2.48912 15.4626 2.48912Z" fill="white"/>
<path d="M31.4098 31C31.4098 24.4535 24.383 19.1471 15.7049 19.1471C7.02682 19.1471 0 24.4535 0 31" fill="white"/>
</svg>
