<svg width="375" height="72" viewBox="0 0 375 72" fill="none" xmlns="http://www.w3.org/2000/svg">
<path d="M27.3674 0C37.0559 0 43.6093 2.83039 47.0275 8.46934C49.6184 11.7787 50.9247 15.7847 50.9247 20.5092V21.5325C50.9247 31.3952 45.5688 37.9486 34.8352 41.1926C31.8742 41.8676 28.6519 42.2159 25.1684 42.2159H16.4379V59.3287H0V0.0217933H27.3674V0ZM16.4379 13.8905V28.1294H24.1451C29.4575 28.1294 32.5056 27.498 33.2894 26.257C34.2038 24.8418 34.6392 23.3178 34.6392 21.6849C34.6392 16.4814 31.3081 13.8905 24.6459 13.8905H16.4379Z" fill="white"/>
<path d="M83.7786 15.4146L88.6991 16.4379V32.0266H86.1518C79.5984 32.0266 75.3093 33.8337 73.2845 37.4478C72.0435 39.2331 71.4121 42.3901 71.4121 46.9404V59.3069H54.9743V16.1112H71.0638V24.9289L73.6111 20.6834C76.3326 17.1781 79.7073 15.4363 83.7786 15.4363V15.4146Z" fill="white"/>
<path d="M94.4904 11.8658V0H111.429V11.8658L102.96 16.6338L94.4904 11.8658ZM111.429 16.1113V59.3069H94.4904V16.1113L102.96 20.8793L111.429 16.1113Z" fill="white"/>
<path d="M305.744 11.8658V0H322.683V11.8658L314.213 16.6338L305.744 11.8658ZM322.683 16.1113V59.3069H305.744V16.1113L314.213 20.8793L322.683 16.1113Z" fill="white"/>
<path d="M162.114 59.3069H146.199V36.7729C146.199 32.5709 144.74 29.9582 141.801 28.9785C141.17 28.8696 140.669 28.8044 140.277 28.8044H139.254C136.249 28.8044 134.29 30.5461 133.332 34.0514C133.223 34.4651 133.158 34.9876 133.158 35.5754V59.2851H117.068V16.0895H133.158V21.5107C136.989 16.8733 141.344 14.5655 146.199 14.5655H147.375C154.342 14.5655 159.044 18.0708 161.439 25.0596C161.897 27.1715 162.114 29.1092 162.114 30.8291V59.2851V59.3069Z" fill="white"/>
<path d="M169.168 16.0895V0.413651H186.107V16.0895H198.778V28.0423H186.107V39.6468C186.107 41.6062 186.738 43.4351 187.979 45.1551C188.937 46.505 192.53 47.3541 198.778 47.6589V59.3069H191.92C187.958 59.3069 184.017 58.6319 180.054 57.2821C172.804 53.755 169.168 46.7444 169.168 36.2721V28.0641H164.901V16.1112H169.168V16.0895Z" fill="white"/>
<path d="M225.035 13.8034C233.896 13.8034 241.081 17.6353 246.546 25.3208C248.701 29.1962 249.768 32.8539 249.768 36.3374V38.7106C249.768 44.8285 247.003 50.4239 241.473 55.475C236.596 59.4375 230.935 61.397 224.535 61.397C215.564 61.397 208.445 57.674 203.198 50.2062C200.825 46.4614 199.649 42.39 199.649 38.0139V37.3389C199.649 28.7608 203.829 21.9244 212.19 16.8298C216.174 14.805 220.463 13.7817 225.079 13.7817L225.035 13.8034ZM217.742 36.6858V38.8848C217.742 44.0448 219.375 46.984 222.662 47.7024L225.035 47.8766C228.018 47.8766 229.956 46.7009 230.805 44.3278C231.48 42.303 231.828 40.0387 231.828 37.5567C231.828 30.7856 229.52 27.3892 224.883 27.3892H224.382C221.639 27.3892 219.788 28.6302 218.787 31.1122C218.112 32.7886 217.763 34.6393 217.763 36.7076L217.742 36.6858Z" fill="white"/>
<path d="M282.078 15.0009C284.799 15.0009 287.499 15.5017 290.221 16.5249C298.124 20.5092 302.086 26.9973 302.086 36.0109V36.5117C302.086 40.7137 301.128 44.502 299.212 47.8549C295.054 54.1905 289.633 57.3474 282.949 57.3474H280.75C277.157 57.3474 273.739 55.9976 270.495 53.2761V72H253.557V51.9262L253.6 16.0895H270.582V19.0505H270.756C274.001 16.329 277.789 14.9792 282.1 14.9792L282.078 15.0009ZM284.103 34.8135C284.103 33.6596 283.82 32.3532 283.254 30.9163C282.23 28.5431 280.206 27.3674 277.157 27.3674C276.57 27.4763 276.004 27.5416 275.459 27.5416C271.845 28.2165 270.038 30.7638 270.038 35.1618C270.147 39.4291 270.539 41.8458 271.214 42.4554C271.214 43.8924 273.021 44.8068 276.635 45.1769H277.658C278.486 45.1769 279.487 45.0028 280.706 44.6762C282.971 43.1739 284.103 40.3653 284.103 36.2068V34.857V34.8135Z" fill="white"/>
<path d="M346.196 60.3955C343.475 60.3955 340.775 59.8947 338.054 58.8715C330.15 54.8872 326.188 47.6806 326.188 37.2736V36.7729C326.188 32.5709 327.146 28.7825 329.062 25.4296C333.22 19.094 338.642 15.9371 345.326 15.9371H347.524C351.117 15.9371 354.535 17.2869 357.779 20.0084V16.1112H374.718L374.674 59.3069H357.692V56.3459H357.518C354.274 59.0674 350.485 60.4173 346.175 60.4173L346.196 60.3955ZM344.172 38.4493C344.172 41.0184 344.455 43.0215 345.021 44.4584C346.044 46.8316 348.069 48.0073 351.117 48.0073C351.705 47.8984 352.271 47.833 352.815 47.833C356.429 47.1363 358.236 43.8705 358.236 38.101C358.127 33.8336 357.736 31.4169 357.061 30.8073C357.061 29.3704 355.254 28.456 351.639 28.0858H350.616C349.789 28.0858 348.787 28.26 347.568 28.5866C345.304 30.0889 344.172 32.8975 344.172 37.0559V38.4058V38.4493Z" fill="white"/>
</svg>
