<svg width="160" height="165" viewBox="0 0 160 165" fill="none" xmlns="http://www.w3.org/2000/svg">
<g clip-path="url(#clip0_86_68)">
<path d="M119.534 85.134C120.761 82.1698 122.472 79.4488 124.812 77.3359C127.297 75.1241 129.683 72.54 132.115 69.4465C137.301 62.7581 140.737 55.9252 142.325 49.1227C145.601 35.1073 139.272 18.8802 126.561 8.74866C115.399 -0.151561 102.266 -2.0821 90.5288 3.44349C89.125 4.10474 87.8669 5.0168 86.6548 5.89846C84.5299 7.44137 82.4893 8.85507 80.0268 8.76387C77.6411 8.64226 75.5775 7.25136 73.3989 5.77686C72.4553 5.13841 71.5194 4.50757 70.5605 3.98313C59.1456 -2.33292 46.1044 -1.08643 34.7663 7.39577C21.2725 17.4893 14.2532 34.6589 17.6977 49.1379C19.3316 56.0088 22.776 62.8493 27.9388 69.4541C30.2095 72.3803 32.649 75.0329 35.2035 77.3359C37.5356 79.4488 39.254 82.1698 40.4814 85.1416H6.8121C3.0455 85.1416 0 88.1666 0 91.8909V158.251C0 161.983 3.05317 165 6.8121 165H153.188C156.954 165 160 161.975 160 158.251V91.8909C160 88.159 156.947 85.1416 153.188 85.1416H119.534V85.134ZM30.0408 67.8352C25.1158 61.5192 21.8325 55.0283 20.2829 48.5223C17.0686 35.0313 23.6813 18.9866 36.3619 9.50112C42.4299 4.9636 49.0118 2.66064 55.5171 2.66064C60.2119 2.66064 64.8684 3.86152 69.2487 6.28609C70.1386 6.78013 71.0054 7.36537 71.8876 7.95821C74.2734 9.56952 76.7435 11.234 79.8734 11.4013C83.3715 11.6293 85.811 9.77474 88.2198 8.03421C89.3858 7.19056 90.4905 6.3925 91.6719 5.83766C102.442 0.768103 114.555 2.58463 124.889 10.816C136.817 20.3319 142.786 35.4873 139.725 48.5375C138.221 54.9675 134.946 61.466 130.005 67.8428C127.673 70.807 125.395 73.2696 123.024 75.3902C115.714 82.0102 113.619 93.7074 114.793 102.357C114.893 103.102 115 103.847 115.108 104.591C115.583 107.822 116.028 110.869 115.668 113.902C114.801 121.016 109.185 127.271 102.036 129.118C101.023 129.331 96.5891 129.726 94.9552 129.498L94.9245 102.098C94.7941 95.0679 91.5568 90.3936 85.5655 88.5771C80.9014 87.1634 75.286 87.6954 71.2586 89.9224C68.3205 91.5489 66.3566 93.9887 65.5742 96.9757C65.1215 98.701 65.1215 100.442 65.1215 102.114C65.0909 111.257 65.0909 120.378 65.0909 129.491C63.4492 129.711 59.0075 129.324 58.0179 129.111C50.8376 127.264 45.2222 121.001 44.3554 113.894C43.9948 110.862 44.4398 107.806 44.9154 104.576C45.0228 103.831 45.1378 103.086 45.2299 102.342C46.4036 93.6922 44.3093 81.995 36.9986 75.3749C34.5591 73.1784 32.2271 70.6474 30.0484 67.8352H30.0408ZM150.518 162.355H9.48171C5.71511 162.355 2.66961 159.33 2.66961 155.606V94.5283C2.66961 90.7964 5.72278 87.779 9.48171 87.779H41.4019C42.8441 92.5294 43.1663 97.6673 42.5833 102C42.4836 102.737 42.3839 103.467 42.2765 104.204C41.8008 107.457 41.3022 110.831 41.7088 114.214C42.6984 122.384 49.1269 129.559 57.3582 131.68C57.4042 131.687 60.6185 132.212 63.4108 132.212C64.9911 132.212 66.4333 132.045 67.1007 131.528C67.5227 131.201 67.7605 130.73 67.7605 130.22C67.7605 120.864 67.7605 111.508 67.7912 102.114C67.7912 100.601 67.7911 99.0354 68.1594 97.6369C68.7577 95.334 70.246 93.5098 72.5627 92.2253C75.9304 90.3556 80.8477 89.8996 84.783 91.1005C89.639 92.5674 92.1552 96.284 92.2549 102.114L92.2856 130.22C92.2856 130.73 92.531 131.201 92.9453 131.528C94.7787 132.941 102.58 131.695 102.665 131.672C110.881 129.552 117.317 122.377 118.307 114.206C118.713 110.831 118.215 107.457 117.739 104.204C117.631 103.474 117.524 102.737 117.424 102C116.841 97.6673 117.164 92.537 118.606 87.779H150.518C154.285 87.779 157.33 90.804 157.33 94.5283V155.606C157.33 159.338 154.277 162.355 150.518 162.355Z" fill="#017F8D"/>
</g>
<defs>
<clipPath id="clip0_86_68">
<rect width="160" height="165" fill="white"/>
</clipPath>
</defs>
</svg>
