<svg width="32" height="30" viewBox="0 0 32 30" fill="none" xmlns="http://www.w3.org/2000/svg">
<path d="M16.0813 19.6586C23.2262 19.6586 28.936 24.1419 30 30H32C32 23.791 25.518 18.7001 17.2707 18.2269C21.6499 17.5088 24.9871 13.7174 24.9871 9.17192C24.9882 4.11818 20.8464 0 15.7538 0C10.6612 0 6.52817 4.11818 6.52817 9.17301C6.52817 13.7644 9.9291 17.5733 14.3545 18.2455C6.29953 18.8542 0 23.8817 0 30H1.95109C3.01511 24.1419 8.93652 19.6586 16.0813 19.6586ZM8.10992 9.17301C8.10992 4.9816 11.5383 1.57273 15.7538 1.57273C19.9692 1.57273 23.4064 4.9816 23.4064 9.17301C23.4064 13.3644 19.978 16.782 15.7538 16.782C11.5295 16.782 8.10992 13.3633 8.10992 9.17301Z" fill="#EEEFEF"/>
</svg>
