<svg width="374" height="31" viewBox="0 0 374 31" fill="none" xmlns="http://www.w3.org/2000/svg">
<path d="M15.904 7.232C15.7547 7.08267 15.4773 6.88 15.072 6.624C14.688 6.368 14.208 6.12267 13.632 5.888C13.0773 5.65333 12.4693 5.45067 11.808 5.28C11.1467 5.088 10.4747 4.992 9.792 4.992C8.59733 4.992 7.69067 5.216 7.072 5.664C6.47467 6.112 6.176 6.74133 6.176 7.552C6.176 8.17067 6.368 8.66133 6.752 9.024C7.136 9.38667 7.712 9.696 8.48 9.952C9.248 10.208 10.208 10.4853 11.36 10.784C12.8533 11.1467 14.144 11.5947 15.232 12.128C16.3413 12.64 17.184 13.3227 17.76 14.176C18.3573 15.008 18.656 16.1173 18.656 17.504C18.656 18.72 18.432 19.7653 17.984 20.64C17.536 21.4933 16.9173 22.1867 16.128 22.72C15.3387 23.2533 14.4427 23.648 13.44 23.904C12.4373 24.1387 11.3707 24.256 10.24 24.256C9.10933 24.256 7.97867 24.1387 6.848 23.904C5.71733 23.6693 4.62933 23.3387 3.584 22.912C2.53867 22.464 1.57867 21.9307 0.704 21.312L2.656 17.504C2.848 17.696 3.18933 17.952 3.68 18.272C4.17067 18.5707 4.768 18.88 5.472 19.2C6.176 19.4987 6.944 19.7547 7.776 19.968C8.608 20.1813 9.45067 20.288 10.304 20.288C11.4987 20.288 12.4053 20.0853 13.024 19.68C13.6427 19.2747 13.952 18.6987 13.952 17.952C13.952 17.2693 13.7067 16.736 13.216 16.352C12.7253 15.968 12.0427 15.6373 11.168 15.36C10.2933 15.0613 9.25867 14.7413 8.064 14.4C6.63467 13.9947 5.44 13.5467 4.48 13.056C3.52 12.544 2.80533 11.904 2.336 11.136C1.86667 10.368 1.632 9.408 1.632 8.256C1.632 6.69867 1.99467 5.39733 2.72 4.352C3.46667 3.28533 4.46933 2.48533 5.728 1.952C6.98667 1.39733 8.384 1.12 9.92 1.12C10.9867 1.12 11.9893 1.23733 12.928 1.472C13.888 1.70667 14.784 2.016 15.616 2.4C16.448 2.784 17.1947 3.2 17.856 3.648L15.904 7.232ZM29.321 24.32C27.9557 24.32 26.729 24.096 25.641 23.648C24.553 23.1787 23.625 22.5387 22.857 21.728C22.1103 20.9173 21.5343 19.9893 21.129 18.944C20.7237 17.8987 20.521 16.8 20.521 15.648C20.521 14.4747 20.7237 13.3653 21.129 12.32C21.5343 11.2747 22.1103 10.3467 22.857 9.536C23.625 8.72533 24.553 8.096 25.641 7.648C26.729 7.17867 27.9557 6.944 29.321 6.944C30.6863 6.944 31.9023 7.17867 32.969 7.648C34.057 8.096 34.985 8.72533 35.753 9.536C36.521 10.3467 37.097 11.2747 37.481 12.32C37.8863 13.3653 38.089 14.4747 38.089 15.648C38.089 16.8 37.8863 17.8987 37.481 18.944C37.097 19.9893 36.521 20.9173 35.753 21.728C35.0063 22.5387 34.089 23.1787 33.001 23.648C31.913 24.096 30.6863 24.32 29.321 24.32ZM24.937 15.648C24.937 16.6293 25.129 17.504 25.513 18.272C25.897 19.0187 26.4197 19.6053 27.081 20.032C27.7423 20.4587 28.489 20.672 29.321 20.672C30.1317 20.672 30.8677 20.4587 31.529 20.032C32.1903 19.584 32.713 18.9867 33.097 18.24C33.5023 17.472 33.705 16.5973 33.705 15.616C33.705 14.656 33.5023 13.792 33.097 13.024C32.713 12.256 32.1903 11.6587 31.529 11.232C30.8677 10.8053 30.1317 10.592 29.321 10.592C28.489 10.592 27.7423 10.816 27.081 11.264C26.4197 11.6907 25.897 12.288 25.513 13.056C25.129 13.8027 24.937 14.6667 24.937 15.648ZM40.9513 0.639999H45.2393V18.624C45.2393 19.392 45.3673 19.9147 45.6233 20.192C45.8793 20.448 46.2313 20.576 46.6793 20.576C47.0206 20.576 47.3726 20.5333 47.7353 20.448C48.0979 20.3627 48.4179 20.256 48.6953 20.128L49.2713 23.392C48.6953 23.6693 48.0233 23.8827 47.2552 24.032C46.4873 24.1813 45.7939 24.256 45.1753 24.256C43.8313 24.256 42.7859 23.904 42.0393 23.2C41.3139 22.4747 40.9513 21.4507 40.9513 20.128V0.639999ZM50.9795 17.728V7.232H55.2675V16.8C55.2675 18.08 55.5022 19.0507 55.9715 19.712C56.4408 20.352 57.1342 20.672 58.0515 20.672C58.6062 20.672 59.1502 20.5653 59.6835 20.352C60.2382 20.1173 60.7395 19.776 61.1875 19.328C61.6568 18.88 62.0515 18.3147 62.3715 17.632V7.232H66.6595V19.2C66.6595 19.648 66.7342 19.968 66.8835 20.16C67.0542 20.352 67.3208 20.4693 67.6835 20.512V24C67.2568 24.064 66.8942 24.1067 66.5955 24.128C66.3182 24.1707 66.0622 24.192 65.8275 24.192C65.0595 24.192 64.4302 24.0213 63.9395 23.68C63.4702 23.3173 63.1928 22.8267 63.1075 22.208L63.0115 20.864C62.2648 21.9947 61.3048 22.8587 60.1315 23.456C58.9582 24.032 57.6675 24.32 56.2595 24.32C54.5315 24.32 53.2195 23.7653 52.3235 22.656C51.4275 21.5253 50.9795 19.8827 50.9795 17.728ZM78.7288 24.32C77.3634 24.32 76.1368 24.096 75.0488 23.648C73.9608 23.1787 73.0328 22.5387 72.2648 21.728C71.4968 20.896 70.8994 19.9573 70.4728 18.912C70.0674 17.8667 69.8648 16.768 69.8648 15.616C69.8648 14.0373 70.2168 12.5973 70.9208 11.296C71.6461 9.97333 72.6701 8.91733 73.9928 8.128C75.3154 7.33867 76.8834 6.944 78.6968 6.944C80.5101 6.944 82.0674 7.33867 83.3688 8.128C84.6701 8.91733 85.6408 9.952 86.2808 11.232L82.0888 12.512C81.7261 11.8933 81.2461 11.424 80.6488 11.104C80.0514 10.7627 79.3901 10.592 78.6648 10.592C77.8541 10.592 77.1074 10.8053 76.4248 11.232C75.7634 11.6373 75.2408 12.224 74.8568 12.992C74.4728 13.7387 74.2808 14.6133 74.2808 15.616C74.2808 16.5973 74.4728 17.472 74.8568 18.24C75.2621 18.9867 75.7954 19.584 76.4568 20.032C77.1181 20.4587 77.8541 20.672 78.6648 20.672C79.1768 20.672 79.6568 20.5867 80.1048 20.416C80.5741 20.2453 80.9901 20.0107 81.3528 19.712C81.7154 19.4133 81.9821 19.072 82.1528 18.688L86.3448 19.968C85.9608 20.8 85.3954 21.5467 84.6488 22.208C83.9234 22.8693 83.0594 23.392 82.0568 23.776C81.0754 24.1387 79.9661 24.32 78.7288 24.32ZM88.9833 24V7.232H93.2713V24H88.9833ZM88.9833 4.896V0.639999H93.2713V4.896H88.9833ZM104.884 24.32C103.518 24.32 102.292 24.096 101.204 23.648C100.116 23.1787 99.1875 22.5387 98.4195 21.728C97.6728 20.9173 97.0968 19.9893 96.6915 18.944C96.2862 17.8987 96.0835 16.8 96.0835 15.648C96.0835 14.4747 96.2862 13.3653 96.6915 12.32C97.0968 11.2747 97.6728 10.3467 98.4195 9.536C99.1875 8.72533 100.116 8.096 101.204 7.648C102.292 7.17867 103.518 6.944 104.884 6.944C106.249 6.944 107.465 7.17867 108.532 7.648C109.62 8.096 110.548 8.72533 111.316 9.536C112.084 10.3467 112.66 11.2747 113.044 12.32C113.449 13.3653 113.652 14.4747 113.652 15.648C113.652 16.8 113.449 17.8987 113.044 18.944C112.66 19.9893 112.084 20.9173 111.316 21.728C110.569 22.5387 109.652 23.1787 108.564 23.648C107.476 24.096 106.249 24.32 104.884 24.32ZM100.5 15.648C100.5 16.6293 100.692 17.504 101.076 18.272C101.46 19.0187 101.982 19.6053 102.644 20.032C103.305 20.4587 104.052 20.672 104.884 20.672C105.694 20.672 106.43 20.4587 107.092 20.032C107.753 19.584 108.276 18.9867 108.66 18.24C109.065 17.472 109.268 16.5973 109.268 15.616C109.268 14.656 109.065 13.792 108.66 13.024C108.276 12.256 107.753 11.6587 107.092 11.232C106.43 10.8053 105.694 10.592 104.884 10.592C104.052 10.592 103.305 10.816 102.644 11.264C101.982 11.6907 101.46 12.288 101.076 13.056C100.692 13.8027 100.5 14.6667 100.5 15.648ZM132.13 24H127.842V14.592C127.842 13.248 127.607 12.2667 127.138 11.648C126.668 11.0293 126.018 10.72 125.186 10.72C124.61 10.72 124.023 10.8693 123.426 11.168C122.85 11.4667 122.327 11.8827 121.858 12.416C121.388 12.928 121.047 13.5253 120.834 14.208V24H116.546V7.232H120.418V10.336C120.844 9.61067 121.388 9.00267 122.05 8.512C122.711 8 123.468 7.616 124.322 7.36C125.196 7.08267 126.114 6.944 127.074 6.944C128.119 6.944 128.972 7.136 129.634 7.52C130.316 7.88267 130.828 8.384 131.17 9.024C131.532 9.64267 131.778 10.3467 131.906 11.136C132.055 11.9253 132.13 12.7253 132.13 13.536V24ZM143.634 24.32C142.29 24.32 141.074 24.096 139.986 23.648C138.898 23.1787 137.97 22.5493 137.202 21.76C136.434 20.9493 135.837 20.032 135.41 19.008C135.005 17.9627 134.802 16.864 134.802 15.712C134.802 14.112 135.154 12.6507 135.858 11.328C136.584 10.0053 137.608 8.94933 138.93 8.16C140.274 7.34933 141.853 6.944 143.666 6.944C145.501 6.944 147.069 7.34933 148.37 8.16C149.672 8.94933 150.664 10.0053 151.346 11.328C152.05 12.6293 152.402 14.0373 152.402 15.552C152.402 15.808 152.392 16.0747 152.37 16.352C152.349 16.608 152.328 16.8213 152.306 16.992H139.346C139.432 17.8453 139.677 18.592 140.082 19.232C140.509 19.872 141.042 20.3627 141.682 20.704C142.344 21.024 143.048 21.184 143.794 21.184C144.648 21.184 145.448 20.9813 146.194 20.576C146.962 20.1493 147.485 19.5947 147.762 18.912L151.442 19.936C151.037 20.7893 150.45 21.5467 149.682 22.208C148.936 22.8693 148.05 23.392 147.026 23.776C146.002 24.1387 144.872 24.32 143.634 24.32ZM139.25 14.272H148.018C147.933 13.4187 147.688 12.6827 147.282 12.064C146.898 11.424 146.386 10.9333 145.746 10.592C145.106 10.2293 144.392 10.048 143.602 10.048C142.834 10.048 142.13 10.2293 141.49 10.592C140.872 10.9333 140.36 11.424 139.954 12.064C139.57 12.6827 139.336 13.4187 139.25 14.272ZM161.191 24.32C159.761 24.32 158.396 24.0853 157.095 23.616C155.793 23.1467 154.673 22.4533 153.735 21.536L155.271 18.752C156.273 19.5627 157.255 20.16 158.215 20.544C159.196 20.928 160.135 21.12 161.031 21.12C161.863 21.12 162.524 20.9707 163.015 20.672C163.527 20.3733 163.783 19.9253 163.783 19.328C163.783 18.9227 163.644 18.6133 163.367 18.4C163.089 18.1653 162.684 17.9627 162.151 17.792C161.639 17.6213 161.009 17.4293 160.263 17.216C159.025 16.8107 157.991 16.416 157.159 16.032C156.327 15.648 155.697 15.168 155.271 14.592C154.865 13.9947 154.663 13.2373 154.663 12.32C154.663 11.2107 154.94 10.2613 155.495 9.472C156.071 8.66133 156.86 8.032 157.863 7.584C158.887 7.136 160.081 6.912 161.447 6.912C162.641 6.912 163.772 7.104 164.839 7.488C165.905 7.85067 166.876 8.448 167.751 9.28L166.023 12C165.169 11.3387 164.359 10.8587 163.591 10.56C162.823 10.24 162.044 10.08 161.255 10.08C160.807 10.08 160.38 10.1333 159.975 10.24C159.591 10.3467 159.271 10.528 159.015 10.784C158.78 11.0187 158.663 11.36 158.663 11.808C158.663 12.2133 158.769 12.5333 158.983 12.768C159.217 12.9813 159.559 13.1733 160.007 13.344C160.476 13.5147 161.041 13.7067 161.703 13.92C163.047 14.304 164.177 14.6987 165.095 15.104C166.033 15.5093 166.737 16.0107 167.207 16.608C167.676 17.184 167.911 17.984 167.911 19.008C167.911 20.672 167.303 21.9733 166.087 22.912C164.871 23.8507 163.239 24.32 161.191 24.32ZM186.291 24.32C184.947 24.32 183.731 24.096 182.643 23.648C181.555 23.1787 180.627 22.5493 179.859 21.76C179.091 20.9493 178.493 20.032 178.067 19.008C177.661 17.9627 177.459 16.864 177.459 15.712C177.459 14.112 177.811 12.6507 178.515 11.328C179.24 10.0053 180.264 8.94933 181.587 8.16C182.931 7.34933 184.509 6.944 186.323 6.944C188.157 6.944 189.725 7.34933 191.027 8.16C192.328 8.94933 193.32 10.0053 194.003 11.328C194.707 12.6293 195.059 14.0373 195.059 15.552C195.059 15.808 195.048 16.0747 195.027 16.352C195.005 16.608 194.984 16.8213 194.963 16.992H182.003C182.088 17.8453 182.333 18.592 182.739 19.232C183.165 19.872 183.699 20.3627 184.339 20.704C185 21.024 185.704 21.184 186.451 21.184C187.304 21.184 188.104 20.9813 188.851 20.576C189.619 20.1493 190.141 19.5947 190.419 18.912L194.099 19.936C193.693 20.7893 193.107 21.5467 192.339 22.208C191.592 22.8693 190.707 23.392 189.683 23.776C188.659 24.1387 187.528 24.32 186.291 24.32ZM181.907 14.272H190.675C190.589 13.4187 190.344 12.6827 189.939 12.064C189.555 11.424 189.043 10.9333 188.403 10.592C187.763 10.2293 187.048 10.048 186.259 10.048C185.491 10.048 184.787 10.2293 184.147 10.592C183.528 10.9333 183.016 11.424 182.611 12.064C182.227 12.6827 181.992 13.4187 181.907 14.272ZM213.255 24H208.967V14.592C208.967 13.248 208.732 12.2667 208.263 11.648C207.793 11.0293 207.143 10.72 206.311 10.72C205.735 10.72 205.148 10.8693 204.551 11.168C203.975 11.4667 203.452 11.8827 202.983 12.416C202.513 12.928 202.172 13.5253 201.959 14.208V24H197.671V7.232H201.543V10.336C201.969 9.61067 202.513 9.00267 203.175 8.512C203.836 8 204.593 7.616 205.447 7.36C206.321 7.08267 207.239 6.944 208.199 6.944C209.244 6.944 210.097 7.136 210.759 7.52C211.441 7.88267 211.953 8.384 212.295 9.024C212.657 9.64267 212.903 10.3467 213.031 11.136C213.18 11.9253 213.255 12.7253 213.255 13.536V24ZM224.671 24V7.232H228.959V24H224.671ZM224.671 4.896V0.639999H228.959V4.896H224.671ZM258.875 24H254.587V14.592C254.587 13.2693 254.352 12.2987 253.883 11.68C253.435 11.04 252.806 10.72 251.995 10.72C251.163 10.72 250.363 11.0507 249.595 11.712C248.848 12.352 248.315 13.1947 247.995 14.24V24H243.707V14.592C243.707 13.248 243.472 12.2667 243.003 11.648C242.555 11.0293 241.926 10.72 241.115 10.72C240.283 10.72 239.483 11.04 238.715 11.68C237.968 12.32 237.435 13.1627 237.115 14.208V24H232.827V7.232H236.699V10.336C237.339 9.248 238.192 8.416 239.259 7.84C240.326 7.24267 241.552 6.944 242.939 6.944C244.326 6.944 245.403 7.28533 246.171 7.968C246.96 8.65067 247.462 9.49333 247.675 10.496C248.358 9.344 249.222 8.46933 250.267 7.872C251.334 7.25333 252.528 6.944 253.851 6.944C254.896 6.944 255.739 7.136 256.379 7.52C257.04 7.88267 257.552 8.384 257.915 9.024C258.278 9.64267 258.523 10.3467 258.651 11.136C258.8 11.9253 258.875 12.7253 258.875 13.536V24ZM272.656 24.32C271.355 24.32 270.203 24.032 269.2 23.456C268.219 22.8587 267.451 22.0587 266.896 21.056V30.816H262.608V7.232H266.352V10.112C266.992 9.13067 267.803 8.36267 268.784 7.808C269.766 7.232 270.886 6.944 272.144 6.944C273.275 6.944 274.31 7.168 275.248 7.616C276.208 8.064 277.04 8.69333 277.744 9.504C278.448 10.2933 278.992 11.2107 279.376 12.256C279.782 13.28 279.984 14.3893 279.984 15.584C279.984 17.2053 279.664 18.6773 279.024 20C278.406 21.3227 277.542 22.3787 276.432 23.168C275.344 23.936 274.086 24.32 272.656 24.32ZM271.216 20.672C271.878 20.672 272.475 20.5333 273.008 20.256C273.542 19.9787 274 19.6053 274.384 19.136C274.79 18.6453 275.088 18.1013 275.28 17.504C275.494 16.8853 275.6 16.2453 275.6 15.584C275.6 14.88 275.483 14.2293 275.248 13.632C275.035 13.0347 274.715 12.512 274.288 12.064C273.862 11.5947 273.36 11.232 272.784 10.976C272.23 10.72 271.622 10.592 270.96 10.592C270.555 10.592 270.139 10.6667 269.712 10.816C269.307 10.944 268.912 11.136 268.528 11.392C268.144 11.648 267.803 11.9467 267.504 12.288C267.227 12.6293 267.024 13.0027 266.896 13.408V17.344C267.152 17.9627 267.494 18.528 267.92 19.04C268.368 19.552 268.88 19.9573 269.456 20.256C270.032 20.5333 270.619 20.672 271.216 20.672ZM292.874 10.944C291.572 10.944 290.41 11.2 289.385 11.712C288.362 12.2027 287.626 12.9173 287.178 13.856V24H282.89V7.232H286.826V10.816C287.423 9.664 288.18 8.75733 289.098 8.096C290.015 7.43467 290.986 7.072 292.01 7.008C292.244 7.008 292.426 7.008 292.554 7.008C292.682 7.008 292.788 7.01867 292.874 7.04V10.944ZM302.822 24.32C301.478 24.32 300.262 24.096 299.174 23.648C298.086 23.1787 297.158 22.5493 296.39 21.76C295.622 20.9493 295.024 20.032 294.598 19.008C294.192 17.9627 293.99 16.864 293.99 15.712C293.99 14.112 294.342 12.6507 295.046 11.328C295.771 10.0053 296.795 8.94933 298.118 8.16C299.462 7.34933 301.04 6.944 302.854 6.944C304.688 6.944 306.256 7.34933 307.558 8.16C308.859 8.94933 309.851 10.0053 310.534 11.328C311.238 12.6293 311.59 14.0373 311.59 15.552C311.59 15.808 311.579 16.0747 311.558 16.352C311.536 16.608 311.515 16.8213 311.494 16.992H298.534C298.619 17.8453 298.864 18.592 299.27 19.232C299.696 19.872 300.23 20.3627 300.87 20.704C301.531 21.024 302.235 21.184 302.982 21.184C303.835 21.184 304.635 20.9813 305.382 20.576C306.15 20.1493 306.672 19.5947 306.95 18.912L310.63 19.936C310.224 20.7893 309.638 21.5467 308.87 22.208C308.123 22.8693 307.238 23.392 306.214 23.776C305.19 24.1387 304.059 24.32 302.822 24.32ZM298.438 14.272H307.206C307.12 13.4187 306.875 12.6827 306.47 12.064C306.086 11.424 305.574 10.9333 304.934 10.592C304.294 10.2293 303.579 10.048 302.79 10.048C302.022 10.048 301.318 10.2293 300.678 10.592C300.059 10.9333 299.547 11.424 299.142 12.064C298.758 12.6827 298.523 13.4187 298.438 14.272ZM320.378 24.32C318.949 24.32 317.583 24.0853 316.282 23.616C314.981 23.1467 313.861 22.4533 312.922 21.536L314.458 18.752C315.461 19.5627 316.442 20.16 317.402 20.544C318.383 20.928 319.322 21.12 320.218 21.12C321.05 21.12 321.711 20.9707 322.202 20.672C322.714 20.3733 322.97 19.9253 322.97 19.328C322.97 18.9227 322.831 18.6133 322.554 18.4C322.277 18.1653 321.871 17.9627 321.338 17.792C320.826 17.6213 320.197 17.4293 319.45 17.216C318.213 16.8107 317.178 16.416 316.346 16.032C315.514 15.648 314.885 15.168 314.458 14.592C314.053 13.9947 313.85 13.2373 313.85 12.32C313.85 11.2107 314.127 10.2613 314.682 9.472C315.258 8.66133 316.047 8.032 317.05 7.584C318.074 7.136 319.269 6.912 320.634 6.912C321.829 6.912 322.959 7.104 324.026 7.488C325.093 7.85067 326.063 8.448 326.938 9.28L325.21 12C324.357 11.3387 323.546 10.8587 322.778 10.56C322.01 10.24 321.231 10.08 320.442 10.08C319.994 10.08 319.567 10.1333 319.162 10.24C318.778 10.3467 318.458 10.528 318.202 10.784C317.967 11.0187 317.85 11.36 317.85 11.808C317.85 12.2133 317.957 12.5333 318.17 12.768C318.405 12.9813 318.746 13.1733 319.194 13.344C319.663 13.5147 320.229 13.7067 320.89 13.92C322.234 14.304 323.365 14.6987 324.282 15.104C325.221 15.5093 325.925 16.0107 326.394 16.608C326.863 17.184 327.098 17.984 327.098 19.008C327.098 20.672 326.49 21.9733 325.274 22.912C324.058 23.8507 322.426 24.32 320.378 24.32ZM330.015 24V7.232H334.303V24H330.015ZM330.015 4.896V0.639999H334.303V4.896H330.015ZM345.915 24.32C344.549 24.32 343.323 24.096 342.235 23.648C341.147 23.1787 340.219 22.5387 339.451 21.728C338.704 20.9173 338.128 19.9893 337.723 18.944C337.317 17.8987 337.115 16.8 337.115 15.648C337.115 14.4747 337.317 13.3653 337.723 12.32C338.128 11.2747 338.704 10.3467 339.451 9.536C340.219 8.72533 341.147 8.096 342.235 7.648C343.323 7.17867 344.549 6.944 345.915 6.944C347.28 6.944 348.496 7.17867 349.563 7.648C350.651 8.096 351.579 8.72533 352.347 9.536C353.115 10.3467 353.691 11.2747 354.075 12.32C354.48 13.3653 354.683 14.4747 354.683 15.648C354.683 16.8 354.48 17.8987 354.075 18.944C353.691 19.9893 353.115 20.9173 352.347 21.728C351.6 22.5387 350.683 23.1787 349.595 23.648C348.507 24.096 347.28 24.32 345.915 24.32ZM341.531 15.648C341.531 16.6293 341.723 17.504 342.107 18.272C342.491 19.0187 343.013 19.6053 343.675 20.032C344.336 20.4587 345.083 20.672 345.915 20.672C346.725 20.672 347.461 20.4587 348.123 20.032C348.784 19.584 349.307 18.9867 349.691 18.24C350.096 17.472 350.299 16.5973 350.299 15.616C350.299 14.656 350.096 13.792 349.691 13.024C349.307 12.256 348.784 11.6587 348.123 11.232C347.461 10.8053 346.725 10.592 345.915 10.592C345.083 10.592 344.336 10.816 343.675 11.264C343.013 11.6907 342.491 12.288 342.107 13.056C341.723 13.8027 341.531 14.6667 341.531 15.648ZM347.323 5.28L344.571 4.448L346.299 0.639999H350.299L347.323 5.28ZM373.161 24H368.873V14.592C368.873 13.248 368.638 12.2667 368.169 11.648C367.7 11.0293 367.049 10.72 366.217 10.72C365.641 10.72 365.054 10.8693 364.457 11.168C363.881 11.4667 363.358 11.8827 362.889 12.416C362.42 12.928 362.078 13.5253 361.865 14.208V24H357.577V7.232H361.449V10.336C361.876 9.61067 362.42 9.00267 363.081 8.512C363.742 8 364.5 7.616 365.353 7.36C366.228 7.08267 367.145 6.944 368.105 6.944C369.15 6.944 370.004 7.136 370.665 7.52C371.348 7.88267 371.86 8.384 372.201 9.024C372.564 9.64267 372.809 10.3467 372.937 11.136C373.086 11.9253 373.161 12.7253 373.161 13.536V24Z" fill="white"/>
</svg>
