<svg width="14" height="20" viewBox="0 0 14 20" fill="none" xmlns="http://www.w3.org/2000/svg">
<g clip-path="url(#clip0_98_125)">
<path d="M7 20C7.07382 20 7.14949 19.9732 7.2067 19.9215C7.48537 19.6733 14 13.7576 14 6.7708C14 3.03642 10.8608 0 7 0C3.1392 0 9.53674e-07 3.03642 9.53674e-07 6.7708C9.53674e-07 13.7576 6.51463 19.6733 6.79146 19.9215C6.85051 19.9732 6.92434 20 6.99816 20H7ZM7 0.59086C10.5231 0.59086 13.3891 3.36308 13.3891 6.7708C13.3891 12.8097 8.12207 18.2114 7 19.2913C5.87978 18.2114 0.610862 12.8097 0.610862 6.7708C0.610862 3.36308 3.47693 0.59086 7 0.59086Z" fill="white"/>
<path d="M7 10.3142C9.28843 10.3142 11.1505 8.51304 11.1505 6.29955C11.1505 4.08605 9.28843 2.28491 7 2.28491C4.71158 2.28491 2.84946 4.08605 2.84946 6.29955C2.84946 8.51304 4.71158 10.3142 7 10.3142ZM7 2.87577C8.9507 2.87577 10.5397 4.41094 10.5397 6.29955C10.5397 8.18816 8.95255 9.72333 7 9.72333C5.04746 9.72333 3.46032 8.18816 3.46032 6.29955C3.46032 4.41094 5.04746 2.87577 7 2.87577Z" fill="white"/>
</g>
<defs>
<clipPath id="clip0_98_125">
<rect width="14" height="20" fill="white" transform="matrix(-1 0 0 1 14 0)"/>
</clipPath>
</defs>
</svg>
